# xmcd
#
# Track frame offsets:
#	150
#	15182
#	26571
#	37028
#	51811
#	65312
#	77285
#	92334
#	105111
#	119363
#	135674
#	151019
#	162863
#	173183
#	186888
#	198501
#	209001
#	223026
#
# Disc length: 3170 seconds
#
# Revision: 1
# Processed by: cddbd v1.5.2PL0 Copyright (c) Steve Scherf et al.
# Submitted via: EasyCDDAExtractor 16.0.6.1
#
DISCID=df0c6012
DTITLE=Συλλογικός δίσκος - Τραγούδια 45 στροφές-Καλδάρας Απόστολος 2
DYEAR=1998
DGENRE=Λαϊκή
TTITLE0=Καλδάρας Απόστολος-Λώρη Μάτα-Καραπατάκης Β. - Θλιμμένα βράδυα [1962, Α
TTITLE0=πόστολος Καλδάρας]
TTITLE1=Ρεπάνης Αντώνης - Με πήρε πάλι το πρωΐ [1966, Απόστολος Καλδάρας]
TTITLE2=Αγγελόπουλος Μανώλης - Σού 'βαλα στεφάνι [1966, Απόστολος Καλδάρας]
TTITLE3=Διονυσίου Στράτος-Σούκα Θεανώ - Δάκρυα θολωμένα [1962, Απόστολος Καλδά
TTITLE3=ρας]
TTITLE4=Δημητρίου Σπύρος-Δημητρίου Φούλη - Πόσο πονώ και καίγομαι [1964, Απόστ
TTITLE4=ολος Καλδάρας]
TTITLE5=Σιναΐδης Θεόδωρος - Το θυμάμαι σε γνώρισα [1966, Απόστολος Καλδάρας]
TTITLE6=Λύδια Γιώτα - Μάννα και ξενητειά [1963, Απόστολος Καλδάρας]
TTITLE7=Αττακλής Ρόδιος - Τον δρόμο πήρα της ξενητειάς [1966, Απόστολος Καλδάρ
TTITLE7=ας]
TTITLE8=Σπυρόπουλος Νίκος-Δημητρίου Φούλη - Μη τα φιλάς τα χείλη μου [1965, Απ
TTITLE8=Καλδάρας-Ε. Παπαγιαννοπούλου]
TTITLE9=Λύδια Γιώτα - Ταπείνωση [1962, Απόστολος Καλδάρας]
TTITLE10=Γκρέϋ Καίτη - Το τραγούδι της ορφάνειας [1961, Απόστολος Καλδάρας]
TTITLE11=Αντωνάκου Νίτσα-Αναγνωστάκης Πέτρος - Όταν πέσεις σ' άλλα χέρια [1963
TTITLE11=, Απόστολος Καλδάρας]
TTITLE12=Καλατζής Γιάννης-Διαμάντη Λίτσα - Το μηδενικό (Το άγραφο χαρτί) [1971
TTITLE12=, Απ. Καλδάρας-Πυθαγόρας]
TTITLE13=Αμπάβη Καίτη-Καλδάρας Απόστολος - Αχ να μπορούσα [1969, Απόστολος Καλ
TTITLE13=δάρας]
TTITLE14=Διαμάντη Λίτσα-Πάριος Γιάννης - Το συμβούλιο [1971, Απόστολος Καλδάρα
TTITLE14=ς-Γ. Σαμολαδάς]
TTITLE15=Ζάχου Εύα - Φιλιά είχα στο στόμα [1970, Απ. Καλδάρας-Ε. Παπαγιαννοπού
TTITLE15=λου]
TTITLE16=Αμπάβη Καίτη-Καλατζής Γιάννης - Λες κι οργώνω μέσ' στα βράχια [1967, 
TTITLE16=Απόστ. Καλδάρας-Δ. Ρήτας]
TTITLE17=Καλατζής Γιάννης - Όνειρο απατηλό [1967, Απόστολος Καλδάρας-Ε. Παπαγι
TTITLE17=αννοπούλου]
EXTD=
EXTT0=
EXTT1=
EXTT2=
EXTT3=
EXTT4=
EXTT5=
EXTT6=
EXTT7=
EXTT8=
EXTT9=
EXTT10=
EXTT11=
EXTT12=
EXTT13=
EXTT14=
EXTT15=
EXTT16=
EXTT17=
PLAYORDER=
